<svg
  width="1250"
  height="1250"
  viewBox="0 0 1250 1250"
  fill="none"
  xmlns="http://www.w3.org/2000/svg"
>
  <circle cx="625" cy="625" r="625" fill="white" />
  <circle cx="625" cy="625" r="624.5" stroke="black" stroke-opacity="0.2" />
  <path
    d="M290.68 237.26L263.32 262.3C261.61 263.86 260.1 263.93 258.8 262.51L223.59 224.03C222.29 222.61 222.49 221.11 224.2 219.55L246.93 198.75C251.58 194.49 255.7 192.07 259.27 191.49C262.84 190.91 266.06 192.19 268.92 195.31L271.53 198.16C274.54 201.45 275.09 204.87 273.19 208.42C276.49 205.83 279.55 204.62 282.36 204.78C285.17 204.94 287.91 206.48 290.59 209.41L295.59 214.87C298.63 218.19 299.76 221.67 298.98 225.3C298.2 228.93 295.43 232.91 290.68 237.26ZM246.9 217.32L252.77 223.73L258.83 218.19C260.63 216.54 260.81 214.92 259.36 213.34L257.84 211.68C256.39 210.1 254.76 210.13 252.96 211.78L246.9 217.32ZM261.14 232.88L267.55 239.89L276.81 231.41C278.61 229.76 278.79 228.14 277.34 226.56L275.22 224.25C273.81 222.71 272.2 222.76 270.39 224.41L261.13 232.89L261.14 232.88Z"
    fill="#084298"
  />
  <path
    d="M351.16 191.24L314.62 217.19C312.73 218.53 311.23 218.42 310.11 216.84L279.91 174.32C278.79 172.75 279.18 171.29 281.07 169.94L317.61 143.99C319.5 142.65 321 142.76 322.12 144.34L327.57 152.02C328.69 153.59 328.3 155.05 326.41 156.4L304.68 171.84L308.27 176.89L323.62 165.98C325.51 164.64 327.01 164.75 328.13 166.33L333.12 173.35C334.24 174.92 333.85 176.38 331.96 177.73L316.61 188.64L320.62 194.28L342.35 178.84C344.24 177.5 345.74 177.61 346.86 179.19L352.31 186.87C353.43 188.45 353.04 189.9 351.15 191.25L351.16 191.24Z"
    fill="#084298"
  />
  <path
    d="M378.01 175.48L365.23 182.31C363.19 183.4 361.71 183.1 360.8 181.39L336.21 135.39C335.3 133.69 335.87 132.29 337.91 131.2L346.77 126.46C348.81 125.37 350.83 125.11 352.82 125.69L377.77 132.61L369.69 117.49C368.78 115.79 369.35 114.39 371.39 113.3L384.17 106.47C386.21 105.38 387.69 105.68 388.6 107.39L413.19 153.39C414.1 155.09 413.53 156.49 411.49 157.58L398.71 164.41C396.67 165.5 395.19 165.2 394.28 163.49L389.61 154.76L367.19 147.85L379.71 171.27C380.62 172.97 380.05 174.37 378.01 175.46V175.48Z"
    fill="#084298"
  />
  <path
    d="M478.94 132L447.99 142.07C445.79 142.79 444.38 142.23 443.79 140.39L427.66 90.79C427.06 88.95 427.87 87.68 430.07 86.96L461.02 76.89C468.73 74.38 474.84 73.8 479.35 75.16C483.85 76.52 486.97 79.85 488.7 85.15L496.47 109.03C498.2 114.34 497.64 118.86 494.79 122.61C491.95 126.36 486.67 129.48 478.95 131.99L478.94 132ZM452.36 95.87L460.83 121.89L471.76 118.33C474.64 117.39 475.67 115.68 474.86 113.18L468.81 94.58C468.01 92.13 466.18 91.37 463.3 92.31L452.37 95.87H452.36Z"
    fill="#084298"
  />
  <path
    d="M513.85 122.08C511.57 122.52 510.25 121.8 509.88 119.9L508.05 110.5C507.68 108.6 508.63 107.43 510.91 106.99L520.3 105.16L515.13 78.62L505.75 80.45C503.48 80.89 502.15 80.17 501.78 78.27L499.92 68.71C499.55 66.81 500.5 65.64 502.78 65.2L543.16 57.33C545.44 56.89 546.76 57.61 547.13 59.51L548.99 69.07C549.36 70.97 548.41 72.14 546.13 72.58L536.93 74.37L542.1 100.91L551.3 99.12C553.58 98.68 554.9 99.4 555.27 101.3L557.1 110.7C557.47 112.6 556.52 113.77 554.24 114.21L513.86 122.08H513.85Z"
    fill="#084298"
  />
  <path
    d="M620.35 108L571.33 111.74C569.02 111.92 567.79 111.04 567.64 109.12L563.67 57.12C563.52 55.19 564.61 54.14 566.92 53.97L581.85 52.83C584.16 52.65 585.39 53.53 585.54 55.45L588.57 95.17L601.76 94.16L600.77 81.16C600.62 79.23 601.71 78.18 604.02 78.01L617.98 76.94C620.29 76.76 621.52 77.64 621.67 79.56L623.6 104.84C623.75 106.77 622.67 107.82 620.35 107.99V108Z"
    fill="#084298"
  />
  <path
    d="M685.78 110.21L636.67 107.9C634.35 107.79 633.24 106.77 633.33 104.84L635.78 52.74C635.87 50.81 637.07 49.9 639.39 50.01L654.35 50.71C656.66 50.82 657.78 51.84 657.69 53.77L655.82 93.57L669.04 94.19L669.65 81.17C669.74 79.24 670.94 78.33 673.26 78.44L687.25 79.1C689.57 79.21 690.68 80.23 690.59 82.16L689.4 107.49C689.31 109.42 688.11 110.33 685.79 110.22L685.78 110.21Z"
    fill="#084298"
  />
  <path
    d="M759.14 106.75C758.71 109.18 757.89 111.31 756.68 113.14C755.47 114.97 753.66 116.41 751.25 117.45C748.84 118.49 745.65 119.06 741.68 119.14C737.71 119.22 732.74 118.74 726.78 117.68C720.82 116.62 715.99 115.37 712.29 113.92C708.59 112.47 705.79 110.84 703.89 109.03C701.99 107.22 700.77 105.25 700.23 103.11C699.69 100.97 699.64 98.69 700.08 96.26L704.88 69.24C705.31 66.81 706.15 64.68 707.39 62.86C708.63 61.04 710.45 59.6 712.86 58.56C715.27 57.52 718.46 56.94 722.44 56.83C726.42 56.72 731.38 57.19 737.34 58.25C743.3 59.31 748.12 60.58 751.82 62.05C755.51 63.52 758.31 65.17 760.21 66.98C762.11 68.79 763.32 70.76 763.82 72.89C764.32 75.02 764.36 77.31 763.93 79.74L759.13 106.76L759.14 106.75ZM722.18 97.23C721.99 98.29 722.31 99.26 723.13 100.14C723.95 101.02 726.08 101.77 729.5 102.38C732.99 103 735.25 103.04 736.3 102.49C737.34 101.94 737.96 101.14 738.15 100.08L741.94 78.76C742.13 77.7 741.82 76.75 741.03 75.9C740.23 75.05 738.09 74.32 734.6 73.69C731.18 73.08 728.93 73.04 727.86 73.55C726.79 74.07 726.16 74.86 725.97 75.91L722.18 97.23Z"
    fill="#084298"
  />
  <path
    d="M783.77 129.77L769.98 125.34C767.77 124.63 766.97 123.36 767.56 121.52L783.51 71.87C784.1 70.03 785.5 69.47 787.71 70.18L797.27 73.25C799.48 73.96 801.06 75.23 802.03 77.06L814.4 99.8L819.64 83.48C820.23 81.64 821.63 81.08 823.84 81.79L837.63 86.22C839.84 86.93 840.65 88.2 840.05 90.04L824.1 139.69C823.51 141.53 822.11 142.09 819.9 141.38L806.11 136.95C803.9 136.24 803.1 134.97 803.69 133.13L806.72 123.71L796.09 102.8L787.97 128.09C787.38 129.93 785.98 130.49 783.77 129.78V129.77Z"
    fill="#084298"
  />
  <path
    d="M245.95 616.41L241.29 588.46C240 580.74 233.33 575.09 225.5 575.09H148.58C140.76 575.09 134.08 580.75 132.79 588.46L128.13 616.41C127.49 620.27 124.15 623.1 120.24 623.1H103.01C89.75 623.1 79 633.85 79 647.11V751.14C79 764.4 89.75 775.15 103.01 775.15H271.06C284.32 775.15 295.07 764.4 295.07 751.14V647.11C295.07 633.85 284.32 623.1 271.06 623.1H253.83C249.92 623.1 246.58 620.27 245.94 616.41H245.95Z"
    stroke="#DC3545"
    stroke-width="9"
    stroke-linecap="round"
    stroke-linejoin="round"
  />
  <path
    d="M199.04 595.09H175.03C170.612 595.09 167.03 598.672 167.03 603.09V611.1C167.03 615.518 170.612 619.1 175.03 619.1H199.04C203.458 619.1 207.04 615.518 207.04 611.1V603.09C207.04 598.672 203.458 595.09 199.04 595.09Z"
    stroke="#DC3545"
    stroke-width="9"
    stroke-linecap="round"
    stroke-linejoin="round"
  />
  <path
    d="M187.04 755.14C217.979 755.14 243.06 730.059 243.06 699.12C243.06 668.181 217.979 643.1 187.04 643.1C156.101 643.1 131.02 668.181 131.02 699.12C131.02 730.059 156.101 755.14 187.04 755.14Z"
    stroke="#DC3545"
    stroke-width="9"
    stroke-linecap="round"
    stroke-linejoin="round"
  />
  <path
    d="M160.2 675.12C154.5 681.49 151.03 689.9 151.03 699.13C151.03 719.02 167.15 735.14 187.04 735.14C206.93 735.14 223.05 719.02 223.05 699.13C223.05 679.24 206.93 663.12 187.04 663.12C181.09 663.12 175.47 664.56 170.53 667.12"
    stroke="#DC3545"
    stroke-width="9"
    stroke-linecap="round"
    stroke-linejoin="round"
  />
  <path
    d="M187.04 719.13C198.07 719.13 207.05 710.16 207.05 699.12"
    stroke="#DC3545"
    stroke-width="9"
    stroke-linecap="round"
    stroke-linejoin="round"
  />
  <path
    d="M259.06 747.14H275.07"
    stroke="#DC3545"
    stroke-width="9"
    stroke-linecap="round"
    stroke-linejoin="round"
  />
  <path
    d="M850.85 1038.6C889.101 1038.6 920.11 1007.59 920.11 969.34C920.11 931.089 889.101 900.08 850.85 900.08C812.599 900.08 781.59 931.089 781.59 969.34C781.59 1007.59 812.599 1038.6 850.85 1038.6Z"
    stroke="#FCB514"
    stroke-width="9"
    stroke-linecap="round"
    stroke-linejoin="round"
  />
  <path
    d="M863.91 901.32C870.94 896.92 875.59 889.15 875.59 880.29C875.59 860.5 850.85 835.76 850.85 835.76C850.85 835.76 826.11 860.5 826.11 880.29C826.11 889.15 830.76 896.91 837.79 901.32"
    stroke="#FCB514"
    stroke-width="9"
    stroke-linecap="round"
    stroke-linejoin="round"
  />
  <path
    d="M863.91 1037.37C870.94 1041.77 875.59 1049.54 875.59 1058.4C875.59 1078.19 850.85 1102.93 850.85 1102.93C850.85 1102.93 826.11 1078.19 826.11 1058.4C826.11 1049.54 830.76 1041.78 837.79 1037.37"
    stroke="#FCB514"
    stroke-width="9"
    stroke-linecap="round"
    stroke-linejoin="round"
  />
  <path
    d="M783.71 902.21C775.79 884.55 784.06 853.68 784.06 853.68C784.06 853.68 814.93 861.94 826.26 877.63"
    stroke="#FCB514"
    stroke-width="9"
    stroke-linecap="round"
    stroke-linejoin="round"
  />
  <path
    d="M875.43 1061.07C886.76 1076.75 917.63 1085.02 917.63 1085.02C917.63 1085.02 925.89 1054.15 917.98 1036.49C917.63 1035.65 917.24 1034.86 916.79 1034.12C914.07 1029.42 909.96 1025.91 905.31 1023.83C902.39 1022.54 899.22 1021.85 896.06 1021.75"
    stroke="#FCB514"
    stroke-width="9"
    stroke-linecap="round"
    stroke-linejoin="round"
  />
  <path
    d="M759.12 944.75C743.44 933.42 735.17 902.55 735.17 902.55C735.17 902.55 766.04 894.29 783.7 902.2C784.54 902.55 785.33 902.94 786.07 903.39C790.77 906.11 794.28 910.22 796.36 914.87C797.65 917.79 798.34 920.96 798.44 924.12"
    stroke="#FCB514"
    stroke-width="9"
    stroke-linecap="round"
    stroke-linejoin="round"
  />
  <path
    d="M942.57 993.93C958.25 1005.26 966.52 1036.13 966.52 1036.13C966.52 1036.13 935.65 1044.39 917.99 1036.48"
    stroke="#FCB514"
    stroke-width="9"
    stroke-linecap="round"
    stroke-linejoin="round"
  />
  <path
    d="M782.82 982.4C778.42 989.43 770.65 994.08 761.79 994.08C742 994.08 717.26 969.34 717.26 969.34C717.26 969.34 742 944.6 761.79 944.6C770.65 944.6 778.41 949.25 782.82 956.28"
    stroke="#FCB514"
    stroke-width="9"
    stroke-linecap="round"
    stroke-linejoin="round"
  />
  <path
    d="M918.87 982.4C923.27 989.43 931.04 994.08 939.9 994.08C959.69 994.08 984.43 969.34 984.43 969.34C984.43 969.34 959.69 944.6 939.9 944.6C931.04 944.6 923.28 949.25 918.87 956.28"
    stroke="#FCB514"
    stroke-width="9"
    stroke-linecap="round"
    stroke-linejoin="round"
  />
  <path
    d="M759.12 993.93C743.44 1005.26 735.17 1036.13 735.17 1036.13C735.17 1036.13 766.04 1044.39 783.7 1036.48C784.54 1036.13 785.33 1035.74 786.07 1035.29C790.77 1032.57 794.28 1028.46 796.36 1023.81C797.65 1020.89 798.34 1017.72 798.44 1014.56"
    stroke="#FCB514"
    stroke-width="9"
    stroke-linecap="round"
    stroke-linejoin="round"
  />
  <path
    d="M903.24 924.12C903.34 920.95 904.03 917.79 905.32 914.87C907.4 910.22 910.91 906.11 915.61 903.39C916.35 902.94 917.14 902.55 917.98 902.2C935.64 894.28 966.51 902.55 966.51 902.55C966.51 902.55 958.25 933.42 942.56 944.75"
    stroke="#FCB514"
    stroke-width="9"
    stroke-linecap="round"
    stroke-linejoin="round"
  />
  <path
    d="M783.71 1036.48C775.79 1054.14 784.06 1085.01 784.06 1085.01C784.06 1085.01 814.93 1076.75 826.26 1061.06"
    stroke="#FCB514"
    stroke-width="9"
    stroke-linecap="round"
    stroke-linejoin="round"
  />
  <path
    d="M875.43 877.62C886.76 861.94 917.63 853.67 917.63 853.67C917.63 853.67 925.89 884.54 917.98 902.2"
    stroke="#FCB514"
    stroke-width="9"
    stroke-linecap="round"
    stroke-linejoin="round"
  />
  <path
    d="M944.84 1068.29H984.42C984.42 1088.08 964.63 1102.92 934.95 1102.92"
    stroke="#198754"
    stroke-width="9"
    stroke-linecap="round"
    stroke-linejoin="round"
  />
  <path
    d="M756.85 1068.29H717.27C717.27 1088.08 737.06 1102.92 766.74 1102.92"
    stroke="#198754"
    stroke-width="9"
    stroke-linecap="round"
    stroke-linejoin="round"
  />
  <path
    d="M806.32 969.34H811.27"
    stroke="#653208"
    stroke-width="9"
    stroke-linecap="round"
    stroke-linejoin="round"
  />
  <path
    d="M848.37 969.34H853.32"
    stroke="#653208"
    stroke-width="9"
    stroke-linecap="round"
    stroke-linejoin="round"
  />
  <path
    d="M890.42 969.34H895.37"
    stroke="#653208"
    stroke-width="9"
    stroke-linecap="round"
    stroke-linejoin="round"
  />
  <path
    d="M826.11 934.71H831.06"
    stroke="#653208"
    stroke-width="9"
    stroke-linecap="round"
    stroke-linejoin="round"
  />
  <path
    d="M870.63 934.71H875.58"
    stroke="#653208"
    stroke-width="9"
    stroke-linecap="round"
    stroke-linejoin="round"
  />
  <path
    d="M826.11 1003.97H831.06"
    stroke="#653208"
    stroke-width="9"
    stroke-linecap="round"
    stroke-linejoin="round"
  />
  <path
    d="M870.63 1003.97H875.58"
    stroke="#653208"
    stroke-width="9"
    stroke-linecap="round"
    stroke-linejoin="round"
  />
  <path
    d="M270.77 994.1C249 992.9 214.39 985.76 196.35 954.51L168.56 906.37C190.76 862.58 226.38 842 275.42 844.68L303.2 892.8C305.95 897.57 308.02 902.39 309.52 907.21"
    stroke="#6F42C1"
    stroke-width="9"
    stroke-linecap="round"
    stroke-linejoin="round"
  />
  <path
    d="M258.69 956.41L242.73 965.63L241.78 963.98C239.32 959.72 238.16 955.07 238.16 950.48C238.16 941.12 243.01 932 251.71 926.99C256.69 924.12 262.2 923.01 267.52 923.46C272.94 923.92 278.17 926.02 282.45 929.54"
    stroke="#6F42C1"
    stroke-width="9"
    stroke-linecap="round"
    stroke-linejoin="round"
  />
  <path
    d="M207.16 919.95L220.97 911.98"
    stroke="#6F42C1"
    stroke-width="9"
    stroke-linecap="round"
    stroke-linejoin="round"
  />
  <path
    d="M254.06 892.87L267.88 884.9"
    stroke="#6F42C1"
    stroke-width="9"
    stroke-linecap="round"
    stroke-linejoin="round"
  />
  <path
    d="M391.78 998.27C377.5 1051.57 311.25 1060.45 311.25 1060.45C311.25 1060.45 258.32 1019.63 272.6 966.33L286.98 912.65C333.65 897.38 373.38 908.02 406.16 944.58L391.78 998.26V998.27Z"
    stroke="#D63384"
    stroke-width="9"
    stroke-linecap="round"
    stroke-linejoin="round"
  />
  <path
    d="M357.35 993.03L305.03 979.01L304.54 980.83C300.67 995.28 309.24 1010.13 323.69 1014C338.14 1017.87 352.99 1009.3 356.86 994.85L357.35 993.03Z"
    stroke="#D63384"
    stroke-width="9"
    stroke-linecap="round"
    stroke-linejoin="round"
  />
  <path
    d="M304.67 949.55L320.08 953.68"
    stroke="#D63384"
    stroke-width="9"
    stroke-linecap="round"
    stroke-linejoin="round"
  />
  <path
    d="M356.99 963.56L372.4 967.69"
    stroke="#D63384"
    stroke-width="9"
    stroke-linecap="round"
    stroke-linejoin="round"
  />
  <path
    d="M490.69 861.34C506.154 861.34 518.69 848.804 518.69 833.34C518.69 817.876 506.154 805.34 490.69 805.34C475.226 805.34 462.69 817.876 462.69 833.34C462.69 848.804 475.226 861.34 490.69 861.34Z"
    stroke="#20C997"
    stroke-width="9"
    stroke-linecap="round"
    stroke-linejoin="round"
  />
  <path
    d="M490.69 843.34V823.34"
    stroke="#20C997"
    stroke-width="9"
    stroke-linecap="round"
    stroke-linejoin="round"
  />
  <path
    d="M500.69 833.34H480.69"
    stroke="#20C997"
    stroke-width="9"
    stroke-linecap="round"
    stroke-linejoin="round"
  />
  <path
    d="M506.69 885.34C506.69 894.18 513.85 901.34 522.69 901.34C531.53 901.34 538.69 894.18 538.69 885.34C538.69 876.5 531.53 869.34 522.69 869.34C519.78 869.34 517.04 870.12 514.69 871.48"
    stroke="#20C997"
    stroke-width="9"
    stroke-linecap="round"
    stroke-linejoin="round"
  />
  <path
    d="M550.69 801.34H530.69C526.27 801.34 522.69 797.76 522.69 793.34C522.69 788.92 519.11 785.34 514.69 785.34H470.69C453.02 785.34 438.69 799.67 438.69 817.34V907.34C438.69 926.12 453.91 941.34 472.69 941.34C491.47 941.34 506.69 926.12 506.69 907.34V885.34"
    stroke="#20C997"
    stroke-width="9"
    stroke-linecap="round"
    stroke-linejoin="round"
  />
  <path
    d="M502.69 785.34V773.34C502.69 768.92 499.11 765.34 494.69 765.34H478.69C474.27 765.34 470.69 768.92 470.69 773.34V785.34"
    stroke="#20C997"
    stroke-width="9"
    stroke-linecap="round"
    stroke-linejoin="round"
  />
  <path
    d="M562.69 885.34C562.69 876.5 569.85 869.34 578.69 869.34C587.53 869.34 594.69 876.5 594.69 885.34C594.69 894.18 587.53 901.34 578.69 901.34C575.78 901.34 573.04 900.56 570.69 899.2"
    stroke="#20C997"
    stroke-width="9"
    stroke-linecap="round"
    stroke-linejoin="round"
  />
  <path
    d="M550.69 801.34H570.69C575.11 801.34 578.69 797.76 578.69 793.34C578.69 788.92 582.27 785.34 586.69 785.34H630.69C648.36 785.34 662.69 799.67 662.69 817.34V907.34C662.69 926.12 647.47 941.34 628.69 941.34C609.91 941.34 594.69 926.12 594.69 907.34V885.34"
    stroke="#20C997"
    stroke-width="9"
    stroke-linecap="round"
    stroke-linejoin="round"
  />
  <path
    d="M598.69 785.34V773.34C598.69 768.92 602.27 765.34 606.69 765.34H622.69C627.11 765.34 630.69 768.92 630.69 773.34V785.34"
    stroke="#20C997"
    stroke-width="9"
    stroke-linecap="round"
    stroke-linejoin="round"
  />
  <path
    d="M550.69 785.34V733.34"
    stroke="#1AA179"
    stroke-width="9"
    stroke-linecap="round"
    stroke-linejoin="round"
  />
  <path
    d="M534.69 801.34L537.71 822.47C538.27 826.41 541.65 829.34 545.63 829.34H555.75C559.73 829.34 563.11 826.41 563.67 822.47L566.69 801.34"
    stroke="#20C997"
    stroke-width="9"
    stroke-linecap="round"
    stroke-linejoin="round"
  />
  <path
    d="M538.69 885.34H562.69"
    stroke="#20C997"
    stroke-width="9"
    stroke-linecap="round"
    stroke-linejoin="round"
  />
  <path
    d="M594.69 835.34V831.34"
    stroke="#20C997"
    stroke-width="9"
    stroke-linecap="round"
    stroke-linejoin="round"
  />
  <path
    d="M634.69 835.34V831.34"
    stroke="#20C997"
    stroke-width="9"
    stroke-linecap="round"
    stroke-linejoin="round"
  />
  <path
    d="M614.69 857.34V853.34"
    stroke="#20C997"
    stroke-width="9"
    stroke-linecap="round"
    stroke-linejoin="round"
  />
  <path
    d="M614.69 817.34V813.34"
    stroke="#20C997"
    stroke-width="9"
    stroke-linecap="round"
    stroke-linejoin="round"
  />
  <path
    d="M1093.29 704.78H1114.78V731.58H1137.11C1151.9 731.58 1163.91 743.6 1163.91 758.38V794.12C1163.91 808.91 1151.89 820.92 1137.11 820.92H1114.78V829.85C1114.78 844.64 1102.76 856.65 1087.98 856.65H1007.58C992.79 856.65 980.78 844.63 980.78 829.85V736.89"
    stroke="#653208"
    stroke-width="9"
    stroke-linecap="round"
    stroke-linejoin="round"
  />
  <path
    d="M1114.78 753.91H1137.11C1139.57 753.91 1141.58 755.91 1141.58 758.38V794.12C1141.58 796.58 1139.58 798.59 1137.11 798.59H1114.78V753.92V753.91Z"
    stroke="#653208"
    stroke-width="9"
    stroke-linecap="round"
    stroke-linejoin="round"
  />
  <path
    d="M1087.98 753.91V825.38"
    stroke="#653208"
    stroke-width="9"
    stroke-linecap="round"
    stroke-linejoin="round"
  />
  <path
    d="M1061.17 753.91V825.38"
    stroke="#653208"
    stroke-width="9"
    stroke-linecap="round"
    stroke-linejoin="round"
  />
  <path
    d="M1034.37 753.91V825.38"
    stroke="#653208"
    stroke-width="9"
    stroke-linecap="round"
    stroke-linejoin="round"
  />
  <path
    d="M1007.57 785.18V825.38"
    stroke="#653208"
    stroke-width="9"
    stroke-linecap="round"
    stroke-linejoin="round"
  />
  <path
    d="M1007.57 753.91V767.31"
    stroke="#653208"
    stroke-width="9"
    stroke-linecap="round"
    stroke-linejoin="round"
  />
  <path
    d="M1043.31 691.38C1043.31 706.18 1055.31 718.18 1070.11 718.18C1084.91 718.18 1096.91 706.18 1096.91 691.38"
    stroke="#653208"
    stroke-width="9"
    stroke-linecap="round"
    stroke-linejoin="round"
  />
  <path
    d="M1052.02 711.12C1052.2 711.97 1052.24 712.82 1052.24 713.71C1052.24 723.58 1044.24 731.58 1034.37 731.58C1027.98 731.58 1022.4 728.23 1019.23 723.18C1015.43 733.28 1005.65 740.51 994.17 740.51C979.38 740.51 967.37 728.49 967.37 713.71C967.37 698.93 979.39 686.91 994.17 686.91"
    stroke="#653208"
    stroke-width="9"
    stroke-linecap="round"
    stroke-linejoin="round"
  />
  <path
    d="M949.5 723.76C941.32 717.22 936.1 707.13 936.1 695.84C936.1 676.1 952.09 660.1 971.84 660.1C976.84 660.1 981.58 661.13 985.91 663C985.46 661.35 985.24 659.65 985.24 657.86C985.24 646.74 994.22 637.76 1005.34 637.76C1009.94 637.76 1014.18 639.32 1017.58 641.96C1021.73 624.18 1037.68 610.96 1056.71 610.96C1075.74 610.96 1091.69 624.18 1095.84 641.96C1099.23 639.32 1103.48 637.76 1108.08 637.76C1119.2 637.76 1128.18 646.74 1128.18 657.86C1128.18 660.23 1127.78 662.51 1127.02 664.61C1127.38 664.57 1127.78 664.57 1128.18 664.57C1142.97 664.57 1154.98 676.59 1154.98 691.37C1154.98 703.03 1147.52 712.95 1137.11 716.65"
    stroke="#653208"
    stroke-width="9"
    stroke-linecap="round"
    stroke-linejoin="round"
  />
  <path
    d="M562.69 1182.75C612.782 1182.75 653.39 1142.14 653.39 1092.05C653.39 1041.96 612.782 1001.35 562.69 1001.35C512.598 1001.35 471.99 1041.96 471.99 1092.05C471.99 1142.14 512.598 1182.75 562.69 1182.75Z"
    stroke="#0DCAF0"
    stroke-width="9"
    stroke-linecap="round"
    stroke-linejoin="round"
  />
  <path
    d="M562.69 1102.13C568.257 1102.13 572.77 1097.62 572.77 1092.05C572.77 1086.48 568.257 1081.97 562.69 1081.97C557.123 1081.97 552.61 1086.48 552.61 1092.05C552.61 1097.62 557.123 1102.13 562.69 1102.13Z"
    stroke="#0DCAF0"
    stroke-width="9"
    stroke-linecap="round"
    stroke-linejoin="round"
  />
  <path
    d="M562.69 1063.5C574.752 1063.5 584.53 1053.72 584.53 1041.66C584.53 1029.6 574.752 1019.82 562.69 1019.82C550.628 1019.82 540.85 1029.6 540.85 1041.66C540.85 1053.72 550.628 1063.5 562.69 1063.5Z"
    stroke="#0DCAF0"
    stroke-width="9"
    stroke-linecap="round"
    stroke-linejoin="round"
  />
  <path
    d="M513.98 1098.77C526.042 1098.77 535.82 1088.99 535.82 1076.93C535.82 1064.87 526.042 1055.09 513.98 1055.09C501.918 1055.09 492.14 1064.87 492.14 1076.93C492.14 1088.99 501.918 1098.77 513.98 1098.77Z"
    stroke="#0DCAF0"
    stroke-width="9"
    stroke-linecap="round"
    stroke-linejoin="round"
  />
  <path
    d="M611.4 1098.77C623.462 1098.77 633.24 1088.99 633.24 1076.93C633.24 1064.87 623.462 1055.09 611.4 1055.09C599.338 1055.09 589.56 1064.87 589.56 1076.93C589.56 1088.99 599.338 1098.77 611.4 1098.77Z"
    stroke="#0DCAF0"
    stroke-width="9"
    stroke-linecap="round"
    stroke-linejoin="round"
  />
  <path
    d="M530.78 1152.52C542.842 1152.52 552.62 1142.74 552.62 1130.68C552.62 1118.62 542.842 1108.84 530.78 1108.84C518.718 1108.84 508.94 1118.62 508.94 1130.68C508.94 1142.74 518.718 1152.52 530.78 1152.52Z"
    stroke="#0DCAF0"
    stroke-width="9"
    stroke-linecap="round"
    stroke-linejoin="round"
  />
  <path
    d="M594.6 1152.52C606.662 1152.52 616.44 1142.74 616.44 1130.68C616.44 1118.62 606.662 1108.84 594.6 1108.84C582.538 1108.84 572.76 1118.62 572.76 1130.68C572.76 1142.74 582.538 1152.52 594.6 1152.52Z"
    stroke="#0DCAF0"
    stroke-width="9"
    stroke-linecap="round"
    stroke-linejoin="round"
  />
  <path
    d="M562.69 1182.75H653.39"
    stroke="#0DCAF0"
    stroke-width="9"
    stroke-linecap="round"
    stroke-linejoin="round"
  />
  <path
    d="M184.36 324.29L129.28 426.01"
    stroke="#055160"
    stroke-width="9"
    stroke-linecap="round"
    stroke-linejoin="round"
  />
  <path
    d="M216.36 516.29H80.36L104.2 472.29"
    stroke="#055160"
    stroke-width="9"
    stroke-linecap="round"
    stroke-linejoin="round"
  />
  <path
    d="M252.64 450.33L184.36 324.29"
    stroke="#055160"
    stroke-width="9"
    stroke-linecap="round"
    stroke-linejoin="round"
  />
  <path
    d="M216.36 516.27L304.36 516.29L260.36 436.29L216.36 516.27Z"
    stroke="#055160"
    stroke-width="9"
    stroke-linecap="round"
    stroke-linejoin="round"
  />
  <path
    d="M286.08 516.29L268.52 484.29"
    stroke="#055160"
    stroke-width="9"
    stroke-linecap="round"
    stroke-linejoin="round"
  />
  <path
    d="M142.76 401.09L168.36 388.29L184.36 408.29L200.36 388.29L225.96 401.09"
    stroke="#055160"
    stroke-width="9"
    stroke-linecap="round"
    stroke-linejoin="round"
  />
  <path
    d="M276.36 316.29C273.17 316.29 270.21 317.25 267.72 318.86C265.25 308.23 255.74 300.29 244.36 300.29C231.11 300.29 220.36 311.04 220.36 324.29C220.36 337.54 231.11 348.29 244.36 348.29H276.36C285.2 348.29 292.36 341.13 292.36 332.29C292.36 323.45 285.2 316.29 276.36 316.29Z"
    stroke="#0AA2C0"
    stroke-width="9"
    stroke-linecap="round"
    stroke-linejoin="round"
  />
  <path
    d="M156.36 440.29C151.49 440.29 147.18 442.51 144.24 445.95C143.06 433.79 132.82 424.29 120.36 424.29C107.11 424.29 96.36 435.04 96.36 448.29C96.36 448.54 96.39 448.79 96.4 449.04C95.13 448.58 93.79 448.29 92.36 448.29C85.73 448.29 80.36 453.66 80.36 460.29C80.36 466.92 85.73 472.29 92.36 472.29H156.36C165.2 472.29 172.36 465.13 172.36 456.29C172.36 447.45 165.2 440.29 156.36 440.29Z"
    stroke="#0AA2C0"
    stroke-width="9"
    stroke-linecap="round"
    stroke-linejoin="round"
  />
  <path
    d="M1163.95 343.94H931.59V576.3H1163.95V343.94Z"
    stroke="white"
    stroke-miterlimit="10"
  />
  <path
    d="M1109.49 507.31C1119.51 507.31 1127.64 499.184 1127.64 489.16C1127.64 479.136 1119.51 471.01 1109.49 471.01C1099.47 471.01 1091.34 479.136 1091.34 489.16C1091.34 499.184 1099.47 507.31 1109.49 507.31Z"
    stroke="#0AA2C0"
    stroke-width="9"
    stroke-linecap="round"
    stroke-linejoin="round"
  />
  <path
    d="M1019.58 525.47H957.01C953 525.47 949.75 528.72 949.75 532.73V550.28C949.75 554.52 953.37 557.86 957.59 557.52L1026.4 552.02C1034.98 551.33 1042.36 545.65 1045.21 537.53L1105.13 367.05L1091.35 362.1L1033.18 516.09C1031.05 521.74 1025.64 525.48 1019.59 525.48L1019.58 525.47Z"
    stroke="#0AA2C0"
    stroke-width="9"
    stroke-linecap="round"
    stroke-linejoin="round"
  />
  <path
    d="M975.16 556.11V525.47"
    stroke="#0AA2C0"
    stroke-width="9"
    stroke-linecap="round"
    stroke-linejoin="round"
  />
  <path
    d="M1015.1 552.92V525.47"
    stroke="#0AA2C0"
    stroke-width="9"
    stroke-linecap="round"
    stroke-linejoin="round"
  />
  <path
    d="M1038.15 502.85L990.41 367.03L1004.21 362.09L1047.77 477.43"
    stroke="#0AA2C0"
    stroke-width="9"
    stroke-linecap="round"
    stroke-linejoin="round"
  />
  <path
    d="M1057.39 502.85L1062.36 516.07C1064.5 521.73 1069.91 525.47 1075.94 525.47H1138.53C1142.52 525.47 1145.79 528.74 1145.79 532.73V550.27C1145.79 554.52 1142.16 557.86 1137.95 557.53L1069.15 552.01C1060.55 551.32 1053.18 545.66 1050.34 537.52L1047.76 530.19"
    stroke="#0AA2C0"
    stroke-width="9"
    stroke-linecap="round"
    stroke-linejoin="round"
  />
  <path
    d="M1120.39 525.47V556.11"
    stroke="#0AA2C0"
    stroke-width="9"
    stroke-linecap="round"
    stroke-linejoin="round"
  />
  <path
    d="M1080.45 525.47V552.92"
    stroke="#0AA2C0"
    stroke-width="9"
    stroke-linecap="round"
    stroke-linejoin="round"
  />
  <path
    d="M781.92 479.07C781.92 498.31 769.53 511.25 724.95 511.25C680.37 511.25 667.8 498.3 667.8 479.07V461.13C667.8 443.74 676.31 434.68 687.41 432.46C679.27 428.95 676.5 421.92 676.5 412.48V401.75C676.5 383.62 687.97 372.53 725.14 372.53C762.31 372.53 773.23 383.63 773.23 401.75V412.48C773.23 421.91 770.46 428.94 762.32 432.46C773.42 434.68 781.93 443.74 781.93 461.13V479.07H781.92ZM724.95 478.88C738.45 478.88 741.04 475.92 741.04 472.04V462.24C741.04 458.54 738.45 455.58 724.95 455.58C711.45 455.58 708.67 458.54 708.67 462.24V472.04C708.67 475.92 711.63 478.88 724.95 478.88ZM724.95 426.54C735.49 426.54 736.42 423.58 736.42 419.7V411.56C736.42 407.86 735.49 404.9 724.95 404.9C714.41 404.9 713.3 407.86 713.3 411.56V419.7C713.3 423.58 714.6 426.54 724.95 426.54Z"
    fill="#FCB514"
    stroke="#664D03"
    stroke-width="9"
    stroke-linecap="round"
  />
  <path
    d="M895.11 381.96V428.76C895.11 452.25 886.05 459.46 866.26 465.38L852.57 469.45V501.82C852.57 506.44 850.54 508.48 845.91 508.48H815.95C811.33 508.48 809.29 506.45 809.29 501.82V468.34C809.29 444.85 818.35 437.64 838.14 431.72L853.12 427.65V411H802.44C797.82 411 795.78 408.97 795.78 404.34V381.96C795.78 377.34 797.81 375.3 802.44 375.3H888.45C893.07 375.3 895.11 377.33 895.11 381.96Z"
    fill="#FCB514"
    stroke="#664D03"
    stroke-width="9"
    stroke-linecap="round"
  />
  <path
    d="M843.17 327.13C873.424 327.13 897.95 302.604 897.95 272.35C897.95 242.096 873.424 217.57 843.17 217.57C812.916 217.57 788.39 242.096 788.39 272.35C788.39 302.604 812.916 327.13 843.17 327.13Z"
    stroke="#842029"
    stroke-width="9"
    stroke-miterlimit="10"
  />
  <path
    d="M1001.41 327.13C1031.66 327.13 1056.19 302.604 1056.19 272.35C1056.19 242.096 1031.66 217.57 1001.41 217.57C971.156 217.57 946.63 242.096 946.63 272.35C946.63 302.604 971.156 327.13 1001.41 327.13Z"
    stroke="#842029"
    stroke-width="9"
    stroke-miterlimit="10"
  />
  <path
    d="M897.96 253.01C897.96 253.01 911.25 248.94 921.32 248.94C931.39 248.94 946.63 253.01 946.63 253.01"
    stroke="#842029"
    stroke-width="9"
    stroke-miterlimit="10"
  />
  <path
    d="M862.78 138.17L888.83 164.22H853.65L892.85 203.42"
    stroke="#FCB514"
    stroke-width="9"
    stroke-linecap="round"
    stroke-linejoin="round"
  />
  <path
    d="M730.22 643.76L830.38 585.93"
    stroke="#0A58CA"
    stroke-width="9"
    stroke-linecap="round"
    stroke-linejoin="round"
  />
  <path
    d="M860.92 680.47L862.16 701.12L814.09 728.88L796.82 717.48"
    stroke="#0A58CA"
    stroke-width="9"
    stroke-linecap="round"
    stroke-linejoin="round"
  />
  <path
    d="M855.13 705.19C856.7 713.62 852.92 722.49 845.07 727.03C837.22 731.56 827.64 730.4 821.12 724.82"
    stroke="#0A58CA"
    stroke-width="9"
    stroke-miterlimit="10"
    stroke-linecap="round"
  />
  <path
    d="M768.73 558.17C768.93 565.56 765.18 572.83 758.33 576.78C751.47 580.74 743.3 580.35 737 576.48"
    stroke="#0A58CA"
    stroke-width="9"
    stroke-miterlimit="10"
    stroke-linecap="round"
  />
  <path
    d="M784.442 580.41L764.411 591.975L771.351 603.996L791.382 592.431L784.442 580.41Z"
    stroke="#0A58CA"
    stroke-width="9"
    stroke-linecap="round"
    stroke-linejoin="round"
  />
  <path
    d="M722.47 616.18L748.39 601.21L755.33 613.23L724.73 630.9"
    stroke="#0A58CA"
    stroke-width="9"
    stroke-linecap="round"
    stroke-linejoin="round"
  />
  <path
    d="M754.58 685.96L730.21 643.75C714.24 616.09 723.72 580.72 751.38 564.76C779.04 548.79 814.4 558.27 830.37 585.93L878.94 670.06L778.78 727.89L767.78 709.31"
    stroke="#0A58CA"
    stroke-width="9"
    stroke-linecap="round"
    stroke-linejoin="round"
  />
  <path
    d="M873.98 769.8H809.21L818.46 742.04H864.72L873.98 769.8Z"
    stroke="#0A58CA"
    stroke-width="9"
    stroke-linecap="round"
    stroke-linejoin="round"
  />
  <path
    d="M767.57 769.8H702.81L712.06 742.04H758.32L767.57 769.8Z"
    stroke="#0A58CA"
    stroke-width="9"
    stroke-linecap="round"
    stroke-linejoin="round"
  />
  <path
    d="M850.85 742.04V722.09"
    stroke="#0A58CA"
    stroke-width="9"
    stroke-linecap="round"
    stroke-linejoin="round"
  />
  <path
    d="M832.34 742.04V729.68"
    stroke="#0A58CA"
    stroke-width="9"
    stroke-linecap="round"
    stroke-linejoin="round"
  />
  <path
    d="M793.02 651.83C799.41 651.83 804.59 646.65 804.59 640.26C804.59 633.87 799.41 628.69 793.02 628.69C786.63 628.69 781.45 633.87 781.45 640.26C781.45 646.65 786.63 651.83 793.02 651.83Z"
    stroke="#0A58CA"
    stroke-width="9"
    stroke-linecap="round"
    stroke-linejoin="round"
  />
  <path
    d="M723.63 742.04L783.13 634.26"
    stroke="#0A58CA"
    stroke-width="9"
    stroke-linecap="round"
    stroke-linejoin="round"
  />
  <path
    d="M749.07 742.04L802.67 646.64"
    stroke="#0A58CA"
    stroke-width="9"
    stroke-linecap="round"
    stroke-linejoin="round"
  />
  <path
    d="M817.16 626.57C824.72 639.9 820.05 656.84 806.71 664.41C801.71 667.25 796.2 668.36 790.87 667.94"
    stroke="#0A58CA"
    stroke-width="9"
    stroke-linecap="round"
    stroke-linejoin="round"
  />
  <path
    d="M535.17 549.97C536.05 558.44 544.15 598.4 544.15 598.4C544.15 598.4 551.74 627.5 551.21 634.05C545.52 638.46 543.68 645.61 543.16 648.36C543.03 649.03 542.44 649.49 541.76 649.49H524.1C524.1 649.49 522.33 639.73 532.49 631.92C523.67 588.24 519.98 574.17 515.71 553.02"
    stroke="#CA6510"
    stroke-width="9"
    stroke-miterlimit="10"
  />
  <path
    d="M518.77 541.49C538.96 556.9 560.42 559.19 576.75 554.66"
    stroke="#CA6510"
    stroke-width="9"
    stroke-miterlimit="10"
  />
  <path
    d="M605.39 507.72C625.93 521.66 636.33 547.85 638.97 583.83"
    stroke="#CA6510"
    stroke-width="9"
    stroke-miterlimit="10"
  />
  <path
    d="M524.3 524.15C519.96 551.75 510.05 553.7 508.86 590.5C508.05 615.61 508.97 612.66 508.97 635.56V635.97C503.28 640.38 501.43 647.53 500.92 650.28C500.79 650.95 500.2 651.41 499.52 651.41H481.86C481.86 651.41 480.09 641.65 490.25 633.84L489.79 591.62C489.79 591.62 488.43 549.27 491.62 531.19C492.77 524.69 493.39 516.68 496.06 509.84C501.08 496.96 499.09 486.09 496.79 478.67C491.38 461.26 480.45 449.02 461.36 410.1C460.65 408.65 458.99 407.9 457.48 408.45C452.57 410.22 446.59 412.8 432.16 409.03C419.28 415.36 411.06 403.5 419.75 394.81C423.28 391.28 425.18 386.95 433.82 385.08C440.74 377.36 440.92 378.23 449.59 378.52C452.46 375.32 455.66 369.58 457.5 366.05C458.39 364.34 460.46 363.61 462.24 364.35L467.79 366.67C469.54 367.4 470.46 369.32 469.95 371.14L469.37 373.19C468.34 376.8 469.45 380.71 472.33 383.11C478.46 388.21 483.75 394.6 487.5 402.09C492.19 411.46 497.47 419.6 502.86 428.58C515.29 449.27 528.42 446.46 537.9 457.2C543.21 463.21 560.91 483.44 566.96 488.71C577.43 497.83 600.52 497.68 610.68 513.87C616.76 523.55 616.4 531.96 612.13 545.07C607.75 558.51 607.06 562.48 605.38 590.48C606.17 615.59 605.49 612.65 605.49 635.55V635.96C599.8 640.37 597.95 647.52 597.44 650.27C597.31 650.94 596.72 651.4 596.04 651.4H578.38C578.38 651.4 576.61 641.64 586.77 633.83L586.31 591.61C586.31 591.61 568.61 562.9 571.46 529.41"
    stroke="#CA6510"
    stroke-width="9"
    stroke-miterlimit="10"
  />
  <path
    d="M612.47 543.28C616.85 576.99 624.22 600.39 624.22 600.39C624.22 600.39 621.47 613.97 626.49 635.55V635.96C620.8 640.37 618.95 647.52 618.44 650.27C618.31 650.94 617.72 651.4 617.04 651.4H595.3"
    stroke="#CA6510"
    stroke-width="9"
    stroke-miterlimit="10"
  />
  <path
    d="M534.63 457.59C524.82 481.21 502.38 457.29 510.25 438.35"
    stroke="#CA6510"
    stroke-width="9"
    stroke-miterlimit="10"
  />
  <path
    d="M544.25 496.83C542.84 512.4 527.01 514.23 518.58 495.3C513.75 484.45 546.26 474.72 544.25 496.83Z"
    stroke="#CA6510"
    stroke-width="9"
    stroke-miterlimit="10"
  />
  <path
    d="M593.15 500.32C581.1 519.91 554.8 514.65 565.79 487.64"
    stroke="#CA6510"
    stroke-width="9"
    stroke-miterlimit="10"
  />
  <path
    d="M613.86 520.44C579.69 528.38 589.41 554.53 608.4 558.4"
    stroke="#CA6510"
    stroke-width="9"
    stroke-miterlimit="10"
  />
  <path
    d="M374.84 721.05C374.84 721.05 383.45 725.38 389.46 725.45C400.66 725.58 408.84 718.31 417.51 709.64C424.24 702.91 429.75 692.11 429.75 682.58V583.15C429.75 573.12 424.82 565.98 410.03 551.19C401.02 542.18 371.95 534.87 355.97 550.85C342.03 564.79 342.2 578.39 342.2 582.89V693.98C342.2 703.2 347.6 711.56 355.99 715.36L365.83 719.81C370.87 722.09 376.71 721.66 381.36 718.67C386.01 715.68 388.82 710.53 388.83 705.01L388.89 674.22C388.93 652.49 380.32 631.63 364.95 616.27L342.03 593.35"
    stroke="#653208"
    stroke-width="9"
    stroke-linejoin="round"
  />
  <path
    d="M369.83 620.98C373.57 624.72 378.41 619.54 382.84 619.03C387.26 618.52 395.93 621.75 398.65 618.01C401.37 614.27 399.84 607.3 404.77 605.77C409.7 604.24 421.6 613.08 429.76 596.08"
    stroke="#653208"
    stroke-width="9"
    stroke-linejoin="round"
  />
  <path
    d="M416.28 557.62C416.28 557.62 407.44 564.41 402.09 559.05C396.74 553.69 396.92 543.96 396.92 543.96"
    stroke="#653208"
    stroke-width="9"
    stroke-linejoin="round"
  />
  <path
    d="M429.35 578.51C429.35 578.51 418.31 581 414.06 576.75C409.81 572.5 412.73 559.71 412.73 559.71"
    stroke="#653208"
    stroke-width="9"
    stroke-linejoin="round"
  />
  <path
    d="M413.77 576.38C413.77 576.38 405.79 584.94 402.09 581.25C398.39 577.56 391.59 560.38 391.04 557.36C390.49 554.34 398.21 552.28 398.21 552.28"
    stroke="#653208"
    stroke-width="9"
    stroke-linejoin="round"
  />
  <path
    d="M393.33 564.07C393.33 564.07 374.67 565.82 373.4 564.54C372.13 563.26 378.82 542.82 378.82 541.5"
    stroke="#653208"
    stroke-width="9"
    stroke-linejoin="round"
  />
  <path
    d="M391.56 555.7C391.56 555.7 388.03 545.26 384.61 541.57"
    stroke="#653208"
    stroke-width="9"
    stroke-linejoin="round"
  />
  <path
    d="M374.3 558.04C374.3 558.04 365.11 559.31 362.43 556.64C359.75 553.97 362.3 546.04 362.3 546.04"
    stroke="#653208"
    stroke-width="9"
    stroke-linejoin="round"
  />
  <path
    d="M373.4 564.54C373.4 564.54 358.44 569.22 356.61 567.9C354.78 566.58 350.54 557.17 350.54 557.17"
    stroke="#653208"
    stroke-width="9"
    stroke-linejoin="round"
  />
  <path
    d="M425.54 602.45C425.54 602.45 416.93 598.38 414.35 593.51C411.78 588.64 417.03 578.48 417.03 578.48"
    stroke="#653208"
    stroke-width="9"
    stroke-linejoin="round"
  />
  <path
    d="M413.68 589.15C413.68 589.15 405.4 595.01 402.47 594.89C399.54 594.76 387.19 583.94 387.24 581.45C387.3 578.96 393.38 568.88 395.31 568.88"
    stroke="#653208"
    stroke-width="9"
    stroke-linejoin="round"
  />
  <path
    d="M387.45 580.43C387.45 580.43 373.52 580.99 371.99 579.71C370.46 578.43 370.03 565.53 370.03 565.53"
    stroke="#653208"
    stroke-width="9"
    stroke-linejoin="round"
  />
  <path
    d="M372 579.72C372 579.72 358.66 581.68 356.09 580.64C353.52 579.6 354.81 565.54 354.81 565.54"
    stroke="#653208"
    stroke-width="9"
    stroke-linejoin="round"
  />
  <path
    d="M403.02 606.74C396.26 607.12 394.53 606.18 386.98 603.17C379.43 600.16 377.84 606.65 372.8 605.09C361.95 601.72 366.66 589.09 357.99 589.26C348.75 589.44 341.98 580.96 342.39 577.94"
    stroke="#653208"
    stroke-width="9"
    stroke-linejoin="round"
  />
  <path
    d="M398.19 592.62L383.73 602.4"
    stroke="#653208"
    stroke-width="9"
    stroke-linejoin="round"
  />
  <path
    d="M380.3 602.95L373.66 580.2"
    stroke="#653208"
    stroke-width="9"
    stroke-linejoin="round"
  />
  <path
    d="M361.49 590.25L368.82 580.14"
    stroke="#653208"
    stroke-width="9"
    stroke-linejoin="round"
  />
  <path
    d="M638.8 237.37L671.2 205.87C682.93 194.46 682.93 175.68 671.2 164.27C659.85 153.23 641.72 153.23 630.37 164.27L626.13 168.39L621.89 164.27C610.54 153.23 592.41 153.23 581.06 164.27C569.33 175.68 569.33 194.46 581.06 205.87L613.46 237.37L570.28 225.14C554.54 220.68 538.27 230.07 534.26 245.94C530.38 261.29 539.44 276.98 554.67 281.3L560.36 282.91L558.91 288.64C555.03 303.99 564.09 319.68 579.32 324C595.07 328.46 611.33 319.07 615.34 303.2L626.12 260.56L636.9 303.2C640.91 319.06 657.18 328.46 672.92 324C688.15 319.69 697.21 303.99 693.33 288.64L691.88 282.91L697.57 281.3C712.8 276.99 721.86 261.29 717.98 245.94C713.97 230.08 697.7 220.68 681.96 225.14L671 228.24"
    stroke="#198754"
    stroke-width="9"
    stroke-linecap="round"
    stroke-linejoin="round"
  />
  <path
    d="M626.13 260.75V308.63C626.13 330.12 608.71 341.55 587.23 341.55"
    stroke="#198754"
    stroke-width="9"
    stroke-linecap="round"
    stroke-linejoin="round"
  />
  <path
    d="M400.41 237.11C402.96 244.76 400.36 252.48 394.6 254.37C388.84 256.26 382.1 251.59 379.55 243.94C377 236.29 379.6 228.57 385.36 226.68C391.12 224.79 397.86 229.46 400.41 237.11Z"
    stroke="#984C0C"
    stroke-width="9"
    stroke-miterlimit="10"
  />
  <path
    d="M374.54 257.65C377.91 263.43 377.09 270.15 372.72 272.65C368.35 275.15 362.07 272.49 358.72 266.71C355.37 260.93 356.15 254.21 360.52 251.71C364.89 249.21 371.17 251.87 374.52 257.65H374.54Z"
    stroke="#984C0C"
    stroke-width="9"
    stroke-miterlimit="10"
  />
  <path
    d="M375.75 294.62C385.09 269.42 401.69 263.02 409.06 263.02C416.43 263.02 433.03 269.42 442.37 294.62C443.01 296.35 443.3 298.2 443.3 300.06V300.35C443.3 304.95 439.57 308.68 434.97 308.68C432.92 308.68 430.89 308.43 428.91 307.93L413.22 304.01C410.49 303.33 407.64 303.33 404.91 304.01L389.22 307.93C387.24 308.43 385.21 308.68 383.16 308.68C378.56 308.68 374.83 304.95 374.83 300.35V300.06C374.83 298.21 375.12 296.35 375.76 294.62H375.75Z"
    stroke="#984C0C"
    stroke-width="9"
    stroke-miterlimit="10"
  />
  <path
    d="M442.86 270.11C438.49 267.61 437.67 260.89 441.04 255.11C444.41 249.33 450.67 246.68 455.04 249.17C459.41 251.67 460.23 258.39 456.86 264.17C453.49 269.95 447.23 272.6 442.86 270.11Z"
    stroke="#984C0C"
    stroke-width="9"
    stroke-miterlimit="10"
  />
  <path
    d="M421.25 252.68C415.49 250.79 412.89 243.07 415.44 235.42C417.99 227.77 424.73 223.1 430.49 224.99C436.25 226.88 438.85 234.6 436.3 242.25C433.75 249.9 427.01 254.57 421.25 252.68Z"
    stroke="#984C0C"
    stroke-width="9"
    stroke-miterlimit="10"
  />
</svg>
